<svg width="755" height="502" viewBox="0 0 755 502" fill="none" xmlns="http://www.w3.org/2000/svg">
<g clip-path="url(#clip0_1705_7253)">
<path d="M719.152 174.479H693.125V142.259H719.152V174.479ZM694.502 173.095H717.772V143.639H694.502V173.095Z" fill="#B0A7E6"/>
<path d="M714.627 148.012H701.879V150.019H714.627V148.012Z" fill="#4F3CC8"/>
<path d="M714.631 152.723H698.109V154.73H714.631V152.723Z" fill="#4F3CC8"/>
<path d="M714.631 157.438H698.109V159.444H714.631V157.438Z" fill="#4F3CC8"/>
<path d="M714.631 162.148H698.109V164.155H714.631V162.148Z" fill="#4F3CC8"/>
<path d="M714.631 166.859H698.109V168.866H714.631V166.859Z" fill="#4F3CC8"/>
<path d="M722.412 146.73H697.762V177.567H722.412V146.73Z" fill="#B0A7E6"/>
<path d="M718.573 151.794H705.824V153.801H718.573V151.794Z" fill="#4F3CC8"/>
<path d="M718.576 156.505H702.055V158.512H718.576V156.505Z" fill="#4F3CC8"/>
<path d="M718.576 161.216H702.055V163.223H718.576V161.216Z" fill="#4F3CC8"/>
<path d="M718.576 165.93H702.055V167.937H718.576V165.93Z" fill="#4F3CC8"/>
<path d="M718.576 170.641H702.055V172.648H718.576V170.641Z" fill="#4F3CC8"/>
<path d="M580.139 53.4863H577.838V55.2151H580.139V53.4863Z" fill="#B0A7E6"/>
<path d="M580.139 120.243H577.838V116.63H580.139V120.243ZM580.139 113.018H577.838V109.405H580.139V113.018ZM580.139 105.793H577.838V102.18H580.139V105.793ZM580.139 98.568H577.838V94.9555H580.139V98.568ZM580.139 91.3431H577.838V87.7306H580.139V91.3431ZM580.139 84.1182H577.838V80.5057H580.139V84.1182ZM580.139 76.8933H577.838V73.2809H580.139V76.8933ZM580.139 69.6684H577.838V66.056H580.139V69.6684ZM580.139 62.4435H577.838V58.8311H580.139V62.4435Z" fill="#B0A7E6"/>
<path d="M580.139 123.855H577.838V125.584H580.139V123.855Z" fill="#B0A7E6"/>
<path d="M561.351 53.4863H559.053V55.2151H561.351V53.4863Z" fill="#B0A7E6"/>
<path d="M540.73 186.207H537.276V183.904H540.73V186.207ZM533.82 186.207H530.366V183.904H533.82V186.207ZM526.91 186.207H523.457V183.904H526.91V186.207ZM520 186.207H516.547V183.904H520V186.207ZM513.09 186.207H509.637V183.904H513.09V186.207ZM506.18 186.207H502.727V183.904H506.18V186.207ZM499.27 186.207H495.817V183.904H499.27V186.207ZM492.36 186.207H488.907V183.904H492.36V186.207ZM485.45 186.207H481.997V183.904H485.45V186.207ZM478.54 186.207H475.087V183.904H478.54V186.207ZM471.63 186.207H468.177V183.904H471.63V186.207ZM464.72 186.207H461.267V183.904H464.72V186.207ZM457.81 186.207H454.357V183.904H457.81V186.207ZM450.9 186.207H447.447V183.904H450.9V186.207ZM443.99 186.207H440.537V183.904H443.99V186.207ZM437.08 186.207H433.627V183.904H437.08V186.207ZM430.17 186.207H426.717V183.904H430.17V186.207ZM423.26 186.207H419.807V183.904H423.26V186.207ZM416.35 186.207H412.897V183.904H416.35V186.207ZM409.44 186.207H405.987V183.904H409.44V186.207ZM402.53 186.207H399.077V183.904H402.53V186.207ZM395.62 186.207H392.167V183.904H395.62V186.207ZM388.71 186.207H385.257V183.904H388.71V186.207ZM381.8 186.207H378.347V183.904H381.8V186.207ZM374.89 186.207H371.437V183.904H374.89V186.207ZM367.98 186.207H364.527V183.904H367.98V186.207ZM361.07 186.207H357.617V183.904H361.07V186.207ZM354.16 186.207H350.707V183.904H354.16V186.207ZM347.25 186.207H343.797V183.904H347.25V186.207ZM340.34 186.207H336.887V183.904H340.34V186.207ZM333.43 186.207H329.977V183.904H333.43V186.207ZM326.52 186.207H323.067V183.904H326.52V186.207ZM319.61 186.207H316.157V183.904H319.61V186.207ZM312.701 186.207H309.247V183.904H312.701V186.207ZM305.791 186.207H302.337V183.904H305.791V186.207ZM298.881 186.207H295.427V183.904H298.881V186.207ZM291.971 186.207H288.517V183.904H291.971V186.207ZM285.061 186.207H281.607V183.904H285.061V186.207ZM278.151 186.207H274.697V183.904H278.151V186.207ZM271.241 186.207H267.787V183.904H271.241V186.207ZM264.331 186.207H260.877V183.904H264.331V186.207ZM257.421 186.207H253.967V183.904H257.421V186.207ZM250.511 186.207H247.057V183.904H250.511V186.207ZM243.601 186.207H240.147V183.904H243.601V186.207ZM236.691 186.207H233.238V183.904H236.691V186.207ZM229.781 186.207H226.328V183.904H229.781V186.207ZM222.871 186.207H219.418V183.904H222.871V186.207ZM215.961 186.207H212.508V183.904H215.961V186.207ZM209.051 186.207H205.598V183.904H209.051V186.207ZM202.141 186.207H198.688V183.904H202.141V186.207ZM195.231 186.207H191.778V183.904H195.231V186.207ZM188.321 186.207H184.868V183.904H188.321V186.207ZM181.411 186.207H177.958V183.904H181.411V186.207ZM174.501 186.207H171.048V183.904H174.501V186.207ZM167.591 186.207H164.138V183.904H167.591V186.207ZM160.681 186.207H157.228V183.904H160.681V186.207ZM153.771 186.207H150.318V183.904H153.771V186.207ZM146.861 186.207H143.408V183.904H146.861V186.207ZM139.951 186.207H136.498V183.904H139.951V186.207ZM133.041 186.207H129.588V183.904H133.041V186.207ZM544.218 186.165L544.06 183.865C545.131 183.792 546.199 183.608 547.232 183.323L547.843 185.545C546.663 185.872 545.444 186.08 544.218 186.165ZM551.272 184.207L550.229 182.154C551.184 181.668 552.094 181.08 552.934 180.408L554.363 182.211C553.401 182.978 552.361 183.647 551.272 184.207ZM556.998 179.64L555.238 178.158C555.93 177.334 556.541 176.436 557.054 175.493L559.074 176.595C558.488 177.672 557.792 178.697 556.998 179.64ZM560.501 173.197L558.301 172.521C558.614 171.496 558.825 170.433 558.93 169.359L561.217 169.581C561.101 170.806 560.859 172.025 560.501 173.197ZM561.305 166.011H559.008V162.55H561.305V166.011ZM561.305 159.085H559.008V155.624H561.305V159.085ZM561.305 152.16H559.008V148.699H561.305V152.16ZM561.305 145.234H559.008V141.773H561.305V145.234ZM561.305 138.308H559.008V134.847H561.305V138.308ZM561.305 131.383H559.008V127.922H561.305V131.383ZM561.305 124.457H559.008V120.996H561.305V124.457ZM561.305 117.532H559.008V114.071H561.305V117.532ZM561.305 110.606H559.008V107.145H561.305V110.606ZM561.305 103.68H559.008V100.219H561.305V103.68ZM561.305 96.7547H559.008V93.2937H561.305V96.7547ZM561.305 89.8291H559.008V86.3681H561.305V89.8291ZM561.305 82.9035H559.008V79.4424H561.305V82.9035ZM561.305 75.9779H559.008V72.5168H561.305V75.9779ZM561.305 69.0522H559.008V65.5912H561.305V69.0522ZM561.305 62.1266H559.008V58.6656H561.305V62.1266Z" fill="#B0A7E6"/>
<path d="M593.966 53.4863H591.665V55.2151H593.966V53.4863Z" fill="#B0A7E6"/>
<path d="M593.963 91.1706H591.662V87.5757H593.963V91.1706ZM593.963 83.9809H591.662V80.386H593.963V83.9809ZM593.963 76.7912H591.662V73.1963H593.963V76.7912ZM593.963 69.6015H591.662V66.0067H593.963V69.6015ZM593.963 62.4118H591.662V58.817H593.963V62.4118Z" fill="#B0A7E6"/>
<path d="M594.539 97.6455H591.666V94.7654H593.963V95.3393H594.539V97.6455Z" fill="#B0A7E6"/>
<path d="M677.452 199.287H675.154V195.851H677.452V199.287ZM677.452 192.414H675.154V188.978H677.452V192.414ZM677.452 185.541H675.154V182.105H677.452V185.541ZM677.452 178.669H675.154V175.232H677.452V178.669ZM677.452 171.796H675.154V168.359H677.452V171.796ZM677.452 164.923H675.154V161.487H677.452V164.923ZM677.452 158.05H675.154V154.614H677.452V158.05ZM677.452 151.177H675.154V147.741H677.452V151.177ZM677.452 144.305H675.154V140.868H677.452V144.305ZM677.452 137.432H675.154V133.995H677.452V137.432ZM677.452 130.559H675.154V127.123H677.452V130.559ZM677.452 123.686H675.154V120.25H677.452V123.686ZM677.452 116.813H675.154V113.377H677.452V116.813ZM675.14 109.986C675.098 108.934 674.926 107.888 674.627 106.884L676.834 106.233C677.181 107.42 677.385 108.648 677.438 109.891L675.14 109.986ZM673.377 104.001C672.843 103.096 672.2 102.258 671.462 101.508L673.099 99.8918C673.967 100.776 674.726 101.765 675.355 102.832L673.373 104.004L673.377 104.001ZM669.003 99.5468C668.107 98.9975 667.145 98.5609 666.147 98.2476L666.832 96.047C668.013 96.4167 669.147 96.9343 670.205 97.5821L669.003 99.5468ZM663.059 97.6842C662.813 97.6702 662.564 97.6631 662.315 97.6631H659.697V95.3604H662.315C662.606 95.3604 662.901 95.3675 663.193 95.3851L663.059 97.6842ZM656.269 97.6631H652.84V95.3604H656.269V97.6631ZM649.412 97.6631H645.983V95.3604H649.412V97.6631ZM642.554 97.6631H639.126V95.3604H642.554V97.6631ZM635.693 97.6631H632.265V95.3604H635.693V97.6631ZM628.836 97.6631H625.408V95.3604H628.836V97.6631ZM621.979 97.6631H618.55V95.3604H621.979V97.6631ZM615.122 97.6631H611.693V95.3604H615.122V97.6631ZM608.264 97.6631H604.836V95.3604H608.264V97.6631ZM601.407 97.6631H597.978V95.3604H601.407V97.6631Z" fill="#B0A7E6"/>
<path d="M677.448 202.741H675.151V204.47H677.448V202.741Z" fill="#B0A7E6"/>
<path d="M563.454 53.3388C563.499 52.7473 563.531 52.1522 563.531 51.5502C563.531 38.9383 553.329 28.7136 540.746 28.7136C528.163 28.7136 517.961 38.9383 517.961 51.5502C517.961 52.1522 517.993 52.7473 518.038 53.3388H563.454Z" fill="#B0A7E6"/>
<path d="M638.301 53.3388C638.346 52.7473 638.378 52.1522 638.378 51.5502C638.378 38.9383 628.176 28.7136 615.593 28.7136C603.01 28.7136 592.808 38.9383 592.808 51.5502C592.808 52.1522 592.84 52.7473 592.885 53.3388H638.301Z" fill="#B0A7E6"/>
<path d="M612.094 53.3388C612.27 51.9445 612.361 50.5256 612.361 49.082C612.361 30.6078 597.417 15.6299 578.984 15.6299C560.552 15.6299 545.608 30.6078 545.608 49.082C545.608 50.5256 545.699 51.9445 545.875 53.3388H612.094Z" fill="#B0A7E6"/>
<path fill-rule="evenodd" clip-rule="evenodd" d="M127.437 89.1248C127.561 88.029 128.549 87.2403 129.645 87.362C135.268 87.9862 140.748 89.7217 145.775 92.4881C146.715 93.0055 147.079 94.1726 146.601 95.1329L146.583 95.1681C146.572 95.191 146.56 95.2136 146.547 95.236L145.308 97.4999C148.515 99.4815 151.481 101.966 154.079 104.916L156.125 103.282C156.541 102.951 157.071 102.798 157.599 102.858C158.127 102.918 158.609 103.186 158.939 103.602C162.592 108.203 165.177 113.317 166.717 118.641C167.024 119.7 166.415 120.807 165.357 121.116L162.848 121.849C163.741 125.634 164.058 129.507 163.827 133.333L166.417 133.627C167.514 133.752 168.302 134.743 168.178 135.84C167.542 141.45 165.838 146.944 163.076 151.986C162.547 152.951 161.338 153.308 160.371 152.785L159.478 152.302L159.464 152.295L158.071 151.527C156.092 154.74 153.613 157.714 150.661 160.325L152.296 162.382C152.982 163.246 152.84 164.502 151.978 165.19C147.387 168.855 142.281 171.448 136.953 172.978C135.894 173.282 134.788 172.672 134.48 171.614L133.751 169.106C129.983 170.007 126.124 170.325 122.312 170.095L122.018 172.693C121.958 173.22 121.691 173.702 121.276 174.033C120.861 174.363 120.331 174.515 119.804 174.455C114.202 173.817 108.71 172.094 103.679 169.326C103.085 168.999 102.697 168.392 102.649 167.715C102.617 167.272 102.734 166.839 102.97 166.478L103.522 165.453L103.529 165.44L104.146 164.314C100.942 162.335 97.9807 159.858 95.3783 156.902L93.3326 158.535C92.9175 158.867 92.3875 159.019 91.8597 158.96C91.3319 158.9 90.8496 158.632 90.5191 158.217C86.863 153.616 84.2654 148.486 82.739 143.146C82.4367 142.088 83.0454 140.985 84.1014 140.677L86.6052 139.945C85.7059 136.167 85.3945 132.304 85.6269 128.485L83.0379 128.19C81.9406 128.066 81.1521 127.075 81.2766 125.978C81.9132 120.365 83.6315 114.861 86.3928 109.821C86.6478 109.355 87.0772 109.01 87.5866 108.862C88.0961 108.713 88.6437 108.773 89.1089 109.028L91.3947 110.282C93.3701 107.07 95.8427 104.102 98.7938 101.493L97.1585 99.4351C96.4724 98.5716 96.6147 97.3158 97.4766 96.6277C102.067 92.9631 107.187 90.359 112.516 88.8288C113.575 88.5246 114.681 89.1346 114.988 90.1929L115.718 92.7017C119.484 91.8019 123.335 91.4902 127.143 91.7224L127.437 89.1248ZM107.379 166.738C110.844 168.423 114.52 169.584 118.274 170.204L118.556 167.711C118.68 166.616 119.668 165.827 120.764 165.949C125.36 166.459 130.059 166.081 134.559 164.751C135.069 164.6 135.618 164.659 136.085 164.914C136.552 165.169 136.898 165.6 137.046 166.111L137.75 168.534C141.292 167.315 144.708 165.564 147.892 163.27L146.319 161.29C145.633 160.427 145.775 159.171 146.637 158.483C150.403 155.475 153.397 151.847 155.569 147.873C155.824 147.406 156.254 147.06 156.764 146.912C157.275 146.763 157.823 146.824 158.289 147.08L160.482 148.289C162.162 144.816 163.312 141.136 163.929 137.37L161.443 137.088C160.348 136.963 159.56 135.976 159.682 134.881C160.191 130.273 159.814 125.559 158.498 121.033C158.19 119.973 158.799 118.864 159.858 118.555L162.272 117.85C161.049 114.304 159.3 110.881 157.015 107.69L155.048 109.26C154.252 109.896 153.104 109.831 152.385 109.11L152.381 109.106C152.328 109.053 152.278 108.997 152.231 108.938C149.24 105.177 145.621 102.173 141.657 100.001C140.689 99.4702 140.334 98.2551 140.864 97.2866L141.595 95.9522L141.595 95.9521L142.076 95.0748C138.609 93.3868 134.939 92.2222 131.181 91.6086L130.898 94.1061C130.774 95.202 129.787 95.9907 128.69 95.869C124.092 95.3583 119.407 95.7266 114.91 97.0561C114.4 97.2069 113.851 97.1483 113.384 96.8931C112.917 96.6379 112.571 96.2073 112.422 95.6964L111.718 93.2734C108.174 94.4935 104.749 96.2516 101.562 98.5473L103.136 100.527C103.822 101.391 103.68 102.646 102.818 103.334C99.0515 106.342 96.0685 109.959 93.9002 113.933C93.6458 114.399 93.2162 114.745 92.7064 114.895C92.1965 115.044 91.6483 114.984 91.1825 114.728L88.9837 113.522C87.3025 116.997 86.1447 120.683 85.526 124.447L88.011 124.73C89.106 124.854 89.894 125.841 89.7729 126.937C89.2632 131.548 89.6308 136.245 90.9578 140.754C91.1077 141.263 91.0489 141.811 90.7941 142.278C90.5393 142.744 90.1096 143.089 89.5997 143.238L87.1808 143.944C88.3978 147.498 90.1518 150.933 92.4424 154.128L94.4098 152.557C94.8249 152.226 95.3547 152.073 95.8825 152.133C96.4102 152.193 96.8926 152.46 97.2231 152.876C100.224 156.651 103.833 159.64 107.797 161.813C108.766 162.344 109.12 163.559 108.59 164.528L107.379 166.738ZM160.429 150.543L160.432 150.538L160.429 150.543L160.429 150.543ZM138.935 119.553C132.684 111.687 121.256 110.391 113.409 116.654L113.409 116.654C105.545 122.931 104.25 134.392 110.502 142.261L110.502 142.261C116.763 150.141 128.191 151.437 136.052 145.163C143.901 138.895 145.198 127.437 138.935 119.553ZM110.914 113.528C120.491 105.884 134.44 107.468 142.066 117.065L142.066 117.065C149.7 126.673 148.123 140.643 138.548 148.289L138.548 148.29C128.956 155.944 115.007 154.361 107.371 144.749C99.7465 135.154 101.326 121.18 110.914 113.528Z" fill="#B0A7E6"/>
<path fill-rule="evenodd" clip-rule="evenodd" d="M281.082 49.0158C281.292 47.1541 282.962 45.8143 284.816 46.021C294.325 47.0814 303.592 50.0298 312.093 54.7295C313.683 55.6084 314.299 57.5912 313.489 59.2226L313.46 59.2824C313.44 59.3212 313.42 59.3597 313.4 59.3977L311.304 63.2438C316.726 66.6102 321.743 70.8303 326.136 75.842L329.597 73.067C330.299 72.5038 331.195 72.2446 332.088 72.3464C332.981 72.4482 333.797 72.9028 334.355 73.6098C340.532 81.426 344.904 90.1143 347.508 99.1588C348.026 100.958 346.997 102.839 345.207 103.364L340.965 104.609C342.475 111.04 343.012 117.619 342.621 124.118L347 124.618C348.855 124.83 350.189 126.513 349.978 128.377C348.902 137.908 346.022 147.241 341.35 155.808C340.456 157.447 338.412 158.053 336.775 157.164L335.267 156.345L335.243 156.332L332.887 155.027C329.54 160.486 325.348 165.539 320.355 169.973L323.121 173.469C324.281 174.936 324.04 177.069 322.583 178.238C314.819 184.465 306.185 188.87 297.174 191.469C295.383 191.986 293.513 190.95 292.993 189.152L291.76 184.89C285.388 186.422 278.862 186.963 272.415 186.571L271.918 190.984C271.817 191.88 271.366 192.699 270.664 193.261C269.962 193.822 269.066 194.08 268.175 193.978C258.701 192.894 249.413 189.967 240.907 185.265C239.901 184.709 239.245 183.678 239.164 182.528C239.111 181.776 239.308 181.04 239.708 180.427L240.64 178.686L240.652 178.664L241.696 176.751C236.277 173.388 231.27 169.18 226.869 164.159L223.409 166.933C222.707 167.496 221.811 167.756 220.919 167.654C220.026 167.552 219.21 167.098 218.652 166.392C212.469 158.576 208.076 149.86 205.495 140.789C204.984 138.992 206.013 137.118 207.799 136.594L212.033 135.352C210.512 128.933 209.985 122.371 210.378 115.882L206 115.382C204.145 115.17 202.811 113.487 203.022 111.623C204.098 102.087 207.004 92.7379 211.674 84.1747C212.105 83.3841 212.831 82.798 213.693 82.5455C214.554 82.2929 215.48 82.3947 216.267 82.8284L220.132 84.9591C223.473 79.502 227.654 74.4591 232.645 70.0271L229.879 66.5313C228.719 65.0645 228.96 62.9309 230.417 61.7621C238.18 55.5364 246.838 51.1125 255.849 48.5129C257.641 47.9962 259.511 49.0325 260.031 50.8302L261.264 55.0924C267.634 53.5638 274.146 53.0342 280.585 53.4286L281.082 49.0158ZM247.162 180.869C253.023 183.731 259.238 185.703 265.587 186.757L266.064 182.522C266.274 180.66 267.944 179.32 269.798 179.527C277.57 180.394 285.517 179.752 293.125 177.493C293.988 177.236 294.917 177.336 295.707 177.769C296.496 178.203 297.081 178.935 297.332 179.802L298.523 183.919C304.512 181.849 310.29 178.873 315.674 174.977L313.013 171.614C311.853 170.147 312.093 168.014 313.55 166.845C319.92 161.734 324.983 155.571 328.655 148.819C329.087 148.027 329.814 147.439 330.677 147.187C331.54 146.934 332.468 147.037 333.256 147.473L336.965 149.526C339.804 143.627 341.75 137.374 342.793 130.977L338.59 130.497C336.738 130.285 335.405 128.609 335.61 126.748C336.472 118.919 335.835 110.911 333.609 103.223C333.088 101.422 334.118 99.5381 335.909 99.0126L339.991 97.8153C337.922 91.7921 334.965 85.9755 331.101 80.5556L327.775 83.2228C326.428 84.3029 324.488 84.1928 323.271 82.9672L323.265 82.9612C323.175 82.871 323.091 82.7758 323.012 82.6761C317.953 76.2855 311.832 71.1831 305.13 67.4926C303.493 66.5909 302.892 64.5267 303.789 62.8813L305.025 60.6145L305.025 60.6143L305.837 59.1238C299.975 56.2562 293.769 54.2778 287.414 53.2354L286.936 57.4783C286.726 59.34 285.056 60.6798 283.202 60.4731C275.425 59.6055 267.503 60.2311 259.898 62.4898C259.036 62.746 258.107 62.6464 257.317 62.2129C256.528 61.7794 255.943 61.0478 255.692 60.1799L254.501 56.0636C248.507 58.1364 242.715 61.1231 237.326 65.0232L239.987 68.3867C241.147 69.8533 240.907 71.9865 239.45 73.1555C233.081 78.2655 228.036 84.4106 224.369 91.161C223.939 91.9533 223.213 92.541 222.35 92.7945C221.488 93.048 220.561 92.9465 219.773 92.5123L216.055 90.4628C213.212 96.3659 211.254 102.627 210.208 109.023L214.41 109.503C216.262 109.715 217.595 111.391 217.39 113.253C216.528 121.086 217.149 129.066 219.393 136.725C219.647 137.591 219.547 138.522 219.117 139.314C218.686 140.106 217.959 140.693 217.097 140.946L213.006 142.146C215.064 148.183 218.031 154.018 221.904 159.446L225.231 156.778C225.933 156.215 226.829 155.955 227.721 156.057C228.614 156.158 229.43 156.612 229.989 157.318C235.064 163.732 241.167 168.811 247.87 172.502C249.508 173.404 250.108 175.468 249.21 177.114L247.162 180.869ZM336.875 153.356L336.879 153.347L336.875 153.356L336.875 153.356ZM300.526 100.709C289.956 87.3457 270.63 85.1437 257.36 95.7839L257.36 95.784C244.061 106.446 241.872 125.918 252.445 139.285L252.445 139.285C263.032 152.672 282.358 154.875 295.652 144.216C308.924 133.568 311.118 114.103 300.526 100.709ZM253.14 90.4729C269.336 77.4864 292.926 80.1772 305.822 96.4818L305.822 96.4819C318.73 112.804 316.065 136.537 299.872 149.527L299.871 149.527C283.652 162.532 260.062 159.841 247.149 143.512C234.256 127.212 236.926 103.473 253.14 90.4729Z" fill="#B0A7E6"/>
<path d="M128.58 448.978C124.169 437.22 119.511 419.358 123.348 399.246C128.381 372.871 143.605 365.796 161.958 325.989C173.561 300.819 181.406 283.137 173.451 267.688C167.219 255.581 152.027 246.293 139.048 248.265C128.257 249.903 117.73 259.519 112.112 267.317C107.534 273.675 105.976 279.16 100.178 280.836C94.2505 282.549 90.8856 278.264 85.7021 279.143C75.1895 280.925 70.5058 301.686 69.7479 305.043C61.3261 342.37 80.9714 380.036 89.7381 396.363C96.9866 409.862 109.048 429.034 128.58 448.98V448.978Z" fill="url(#paint0_linear_1705_7253)"/>
<mask id="mask0_1705_7253" style="mask-type:luminance" maskUnits="userSpaceOnUse" x="67" y="248" width="110" height="201">
<path d="M128.582 448.978C124.171 437.22 119.513 419.358 123.35 399.246C128.383 372.871 143.607 365.796 161.96 325.989C173.563 300.819 181.408 283.137 173.453 267.688C167.221 255.581 152.029 246.293 139.05 248.265C128.259 249.903 117.732 259.519 112.114 267.317C107.536 273.675 105.978 279.16 100.18 280.836C94.2525 282.549 90.8875 278.264 85.704 279.143C75.1915 280.925 70.5078 301.686 69.7498 305.043C61.3281 342.37 80.9734 380.036 89.7401 396.363C96.9885 409.862 109.05 429.034 128.582 448.98V448.978Z" fill="white"/>
</mask>
<g mask="url(#mask0_1705_7253)">
<g style="mix-blend-mode:soft-light" opacity="0.5">
<path d="M134.843 459.852L135.573 459.175C123.986 446.726 114.905 434.22 108.583 422.003C99.2672 404 96.2636 387.139 99.6521 371.891C102.306 359.946 108.698 349.351 117.54 334.686C124.601 322.98 130.662 315.317 136.012 308.557C143.012 299.711 148.538 292.723 152.98 280.813C157.485 268.729 159.341 255.422 158.494 241.264L157.499 241.322C158.337 255.342 156.502 268.511 152.046 280.463C147.66 292.226 142.174 299.16 135.23 307.936C129.864 314.72 123.782 322.408 116.688 334.168C108.13 348.359 101.37 359.566 98.6782 371.671C95.2359 387.154 98.2723 404.239 107.696 422.458C114.06 434.754 123.193 447.335 134.841 459.85L134.843 459.852Z" fill="white"/>
<path d="M123.349 326.358C125.956 326.358 134.596 326.051 144.879 322.406C156.222 318.383 171.96 309.358 182.518 289.214L181.635 288.752C171.228 308.613 155.722 317.504 144.546 321.468C134.097 325.174 125.396 325.38 123.157 325.364C127.369 299.994 122.343 280.294 117.361 268.204C111.917 254.99 105.33 247.738 105.262 247.665L104.528 248.338C104.593 248.408 111.079 255.56 116.455 268.626C121.414 280.679 126.414 300.374 122.075 325.765L121.981 326.32L122.545 326.346C122.561 326.346 122.84 326.358 123.349 326.358Z" fill="white"/>
<path d="M103.91 358.534L104.224 358.356C104.362 358.279 118.191 350.541 133.568 345.497C148.839 340.487 174.693 348.874 174.954 348.961L175.266 348.014C175.2 347.993 168.613 345.839 160.201 344.346C152.413 342.963 141.417 341.873 133.255 344.552C119.082 349.2 106.223 356.12 104.053 357.313C82.6428 337.023 84.8743 264.617 84.9001 263.886L83.9028 263.851C83.8958 264.036 83.2927 282.556 85.4023 303.322C88.2416 331.28 94.3778 349.775 103.64 358.291L103.907 358.537L103.91 358.534Z" fill="white"/>
<path d="M105.457 417.675L105.394 416.684C104.477 402.291 111.237 390.986 125.49 383.082C136.164 377.161 147.247 375.489 147.357 375.475L147.214 374.491C147.102 374.507 135.841 376.207 125.007 382.212C110.925 390.022 103.798 401.6 104.348 415.744C101.511 413.789 91.6903 406.736 80.6404 395.501C68.5909 383.248 52.571 363.373 44.6819 338.263L29.3449 289.455L28.3946 289.753L43.7316 338.561C51.684 363.87 67.8165 383.883 79.9505 396.215C93.0912 409.574 104.514 417.059 104.629 417.134L105.462 417.675H105.457Z" fill="white"/>
</g>
</g>
<path d="M126.711 445.681C106.866 445.618 81.5939 442.711 57.4714 431.523C51.3164 428.668 13.2883 411.029 17.972 393.694C19.6216 387.588 25.1782 386.676 27.5271 378.552C30.3101 368.925 24.2912 364.042 20.2035 351.968C17.7655 344.762 10.6296 323.68 23.3456 312.17C30.946 305.293 45.2905 302.147 56.1573 304.793C72.0998 308.678 77.4381 324.27 86.0171 350.807C93.6199 374.332 91.5503 380.068 97.3204 396.913C101.603 409.414 109.731 426.647 126.709 445.683L126.711 445.681Z" fill="url(#paint1_linear_1705_7253)"/>
<mask id="mask1_1705_7253" style="mask-type:luminance" maskUnits="userSpaceOnUse" x="16" y="303" width="111" height="143">
<path d="M126.711 445.68C106.866 445.617 81.5939 442.71 57.4714 431.522C51.3164 428.667 13.2883 411.028 17.972 393.693C19.6216 387.587 25.1782 386.675 27.5271 378.551C30.3101 368.924 24.2912 364.041 20.2035 351.967C17.7655 344.761 10.6296 323.679 23.3456 312.169C30.946 305.292 45.2905 302.146 56.1573 304.792C72.0998 308.677 77.4381 324.269 86.0171 350.806C93.6199 374.331 91.5503 380.067 97.3204 396.912C101.603 409.413 109.731 426.646 126.709 445.682L126.711 445.68Z" fill="white"/>
</mask>
<g mask="url(#mask1_1705_7253)">
<g style="mix-blend-mode:soft-light" opacity="0.5">
<path d="M177.69 457.033C188.791 457.033 200.153 455.559 211.693 452.612L211.447 451.646C189.678 457.204 168.547 457.485 148.644 452.478C122.128 445.81 99.2304 429.675 80.5848 404.521C61.1624 378.319 51.2201 348.897 46.2994 328.829C42.8969 314.947 43.7323 299.62 48.7844 283.274L47.8317 282.981C42.7256 299.502 41.8832 315.008 45.3303 329.068C50.2721 349.225 60.2613 378.781 79.7823 405.117C98.5687 430.458 121.654 446.719 148.4 453.447C157.908 455.837 167.693 457.033 177.69 457.033Z" fill="white"/>
<path d="M59.2914 369.011L59.5777 368.667C59.634 368.599 65.2798 361.712 69.8884 351.161C74.1474 341.412 78.3759 326.441 74.3328 310.48L73.366 310.724C80.5042 338.893 61.6309 364.41 59.0849 367.68C17.3892 339.959 18.1142 308.774 19.3368 299.855C19.372 299.608 19.3884 299.454 19.3884 299.395H18.8909L18.3935 299.386C18.3911 299.437 18.3747 299.55 18.3512 299.719C17.1052 308.811 16.3496 340.658 58.9207 368.763L59.2938 369.009L59.2914 369.011Z" fill="white"/>
<path d="M64.7652 405.945C69.4372 405.945 74.4846 405.619 79.9286 404.874L80.1914 404.836L80.3088 404.597C80.4261 404.356 92.0157 380.127 89.8545 347.01L87.6769 313.643L86.682 313.708L88.8596 347.076C90.887 378.161 80.7147 401.334 79.525 403.922C65.2955 405.835 44.8407 405.964 27.6405 395.898C17.3251 389.86 13.045 382.938 13.0028 382.867L12.1486 383.383C12.327 383.674 16.6024 390.591 27.1337 396.756C34.7998 401.243 47.0605 405.942 64.7605 405.942L64.7652 405.945Z" fill="white"/>
</g>
</g>
<path d="M115.038 454.6C115.089 452.586 115.207 440.711 106.454 433.435C99.1282 427.346 89.566 427.786 87.3508 427.889C78.4316 428.302 76.2235 432.43 70.7373 430.55C64.221 428.318 63.7681 421.277 58.5634 421.11C54.9732 420.996 51.39 424.223 50.2919 427.561C48.3653 433.419 53.6357 441.002 59.7743 443.998C68.2289 448.126 73.7738 441.319 83.77 445.493C89.5801 447.919 89.4651 450.953 95.5473 453.66C102.608 456.803 109.908 455.894 115.035 454.6H115.038Z" fill="url(#paint2_linear_1705_7253)"/>
<mask id="mask2_1705_7253" style="mask-type:luminance" maskUnits="userSpaceOnUse" x="49" y="421" width="67" height="35">
<path d="M115.036 454.598C115.087 452.585 115.205 440.71 106.452 433.434C99.1262 427.344 89.564 427.784 87.3489 427.887C78.4297 428.3 76.2216 432.428 70.7354 430.548C64.219 428.316 63.7661 421.275 58.5615 421.108C54.9713 420.994 51.3881 424.221 50.2899 427.559C48.3634 433.417 53.6337 441 59.7723 443.996C68.2269 448.124 73.7718 441.317 83.7681 445.491C89.5781 447.918 89.4631 450.951 95.5454 453.658C102.606 456.802 109.906 455.892 115.033 454.598H115.036Z" fill="white"/>
</mask>
<g mask="url(#mask2_1705_7253)">
<g style="mix-blend-mode:soft-light" opacity="0.5">
<path d="M117.783 459.088L118.18 458.786C115.183 454.876 111.905 451.1 108.437 447.558C101.496 440.469 98.0111 436.911 93.7592 435.42C88.2237 433.479 83.9131 435.045 79.7456 436.557C76.0662 437.893 72.5886 439.154 68.4376 438.029C61.8368 436.241 56.5265 429.007 52.6571 416.529L52.1807 416.677C56.1065 429.328 61.5317 436.672 68.3086 438.51C72.6145 439.677 76.1601 438.388 79.9169 437.026C84.0023 435.542 88.2307 434.009 93.5949 435.889C97.7389 437.342 101.195 440.872 108.083 447.907C111.537 451.435 114.801 455.197 117.785 459.09L117.783 459.088Z" fill="white"/>
<path d="M60.2039 439.438C64.4957 439.438 66.8587 438.08 67.0206 437.984L67.0933 437.942L67.1238 437.865C68.5717 434.267 68.0132 429.869 67.2881 426.815C66.5067 423.519 65.3686 421.027 65.3592 421.004L64.9064 421.213C64.9509 421.309 69.3108 430.933 66.6944 437.598C66.3471 437.783 64.7468 438.561 62.0741 438.831C59.2793 439.112 54.7036 438.875 48.7832 436.154L48.5744 436.606C53.3167 438.786 57.2238 439.44 60.2015 439.44L60.2039 439.438Z" fill="white"/>
<path d="M72.2964 449.932C75.1592 441.8 93.5679 435.95 93.7533 435.893L93.9668 435.825L93.9245 435.607C93.3356 432.605 90.0129 430.528 84.0503 429.433C79.6669 428.629 75.3962 428.681 75.354 428.683L75.361 429.18C75.5229 429.178 91.7611 429.016 93.3872 435.488C92.404 435.809 88.2482 437.22 83.8626 439.4C77.1186 442.754 73.0708 446.242 71.8295 449.766L72.2988 449.932H72.2964Z" fill="white"/>
<path d="M84.3209 453.059C89.2979 441.449 107.263 447.152 107.444 447.213L107.725 447.304L107.768 447.011C109.396 435.926 99.4232 425.882 99.3223 425.781L98.9704 426.135C99.0689 426.234 108.692 435.931 107.315 446.653C104.954 445.961 88.6643 441.662 83.8633 452.862L84.3209 453.059Z" fill="white"/>
</g>
</g>
<path d="M715.803 502.001H67.0834C64.9616 502.001 63.2402 500.275 63.2402 498.149C63.2402 496.022 64.9616 494.297 67.0834 494.297H715.803C717.924 494.297 719.646 496.022 719.646 498.149C719.646 500.275 717.924 502.001 715.803 502.001Z" fill="#3E2F9E"/>
<path d="M653.729 125.46H133.078C126.072 125.46 120.393 131.152 120.393 138.174V462.006C120.393 469.027 126.072 474.72 133.078 474.72H653.729C660.735 474.72 666.414 469.027 666.414 462.006V138.174C666.414 131.152 660.735 125.46 653.729 125.46Z" fill="#B3D1FF"/>
<path d="M664.061 138.174V462.009C664.061 467.724 659.43 472.361 653.732 472.361L133.078 472.361C127.376 472.361 122.75 467.72 122.75 462.009V138.174C122.75 132.46 127.38 127.819 133.081 127.819L653.729 127.819C659.43 127.819 664.057 132.46 664.057 138.171L664.061 138.174Z" fill="#4837B6"/>
<path d="M648.523 139.582H138.836V458.981H648.523V139.582Z" fill="#A27CF5"/>
<path d="M703.763 474.719V483.225C703.763 483.658 703.739 484.088 703.686 484.507C703.057 490.017 698.385 494.295 692.719 494.295H87.0471C81.3807 494.295 76.712 490.017 76.0831 484.507C76.0305 484.088 76.0059 483.658 76.0059 483.225V474.719H703.763Z" fill="#6558DE"/>
<path d="M703.687 484.508C703.058 490.018 698.386 494.296 692.719 494.296H87.0479C81.3815 494.296 76.7128 490.018 76.084 484.508H703.687Z" fill="#4837B6"/>
<path opacity="0.3" d="M536.385 207.332H254.19C246.474 207.332 240.219 213.601 240.219 221.335V385.208C240.219 392.942 246.474 399.211 254.19 399.211H536.385C544.101 399.211 550.356 392.942 550.356 385.208V221.335C550.356 213.601 544.101 207.332 536.385 207.332Z" fill="#3E2F9E"/>
<path d="M442.288 335.388H396.725C392.855 335.388 389.717 338.533 389.717 342.412C389.717 346.291 392.855 349.436 396.725 349.436H442.288C446.159 349.436 449.296 346.291 449.296 342.412C449.296 338.533 446.159 335.388 442.288 335.388Z" fill="#F082AC"/>
<path d="M475.372 279.416H375.956C372.085 279.416 368.947 282.561 368.947 286.44C368.947 290.32 372.085 293.464 375.956 293.464H475.372C479.243 293.464 482.38 290.32 482.38 286.44C482.38 282.561 479.243 279.416 475.372 279.416Z" fill="white"/>
<path d="M475.372 305.861H375.956C372.085 305.861 368.947 309.006 368.947 312.886C368.947 316.765 372.085 319.91 375.956 319.91H475.372C479.243 319.91 482.38 316.765 482.38 312.886C482.38 309.006 479.243 305.861 475.372 305.861Z" fill="white"/>
<path d="M392.78 313.509C392.78 314.875 391.673 315.98 390.314 315.98C388.954 315.98 387.848 314.871 387.848 313.509C387.848 312.146 388.954 311.037 390.314 311.037C391.673 311.037 392.78 312.146 392.78 313.509Z" fill="#6558DE"/>
<path d="M401.239 313.509C401.239 314.875 400.132 315.98 398.773 315.98C397.413 315.98 396.307 314.871 396.307 313.509C396.307 312.146 397.41 311.037 398.773 311.037C400.136 311.037 401.239 312.146 401.239 313.509Z" fill="#6558DE"/>
<path d="M409.702 313.509C409.702 314.875 408.595 315.98 407.236 315.98C405.876 315.98 404.77 314.871 404.77 313.509C404.77 312.146 405.876 311.037 407.236 311.037C408.595 311.037 409.702 312.146 409.702 313.509Z" fill="#6558DE"/>
<path d="M418.161 313.509C418.161 314.875 417.054 315.98 415.695 315.98C414.335 315.98 413.229 314.871 413.229 313.509C413.229 312.146 414.335 311.037 415.695 311.037C417.054 311.037 418.161 312.146 418.161 313.509Z" fill="#6558DE"/>
<path d="M426.624 313.509C426.624 314.875 425.517 315.98 424.158 315.98C422.798 315.98 421.691 314.871 421.691 313.509C421.691 312.146 422.798 311.037 424.158 311.037C425.517 311.037 426.624 312.146 426.624 313.509Z" fill="#6558DE"/>
<path d="M435.083 313.509C435.083 314.875 433.976 315.98 432.616 315.98C431.257 315.98 430.15 314.871 430.15 313.509C430.15 312.146 431.257 311.037 432.616 311.037C433.976 311.037 435.083 312.146 435.083 313.509Z" fill="#6558DE"/>
<path d="M443.542 313.509C443.542 314.875 442.435 315.98 441.075 315.98C439.716 315.98 438.609 314.871 438.609 313.509C438.609 312.146 439.716 311.037 441.075 311.037C442.435 311.037 443.542 312.146 443.542 313.509Z" fill="#6558DE"/>
<path d="M452.004 313.509C452.004 314.875 450.898 315.98 449.538 315.98C448.179 315.98 447.072 314.871 447.072 313.509C447.072 312.146 448.179 311.037 449.538 311.037C450.898 311.037 452.004 312.146 452.004 313.509Z" fill="#6558DE"/>
<path d="M460.463 313.509C460.463 314.875 459.357 315.98 457.997 315.98C456.638 315.98 455.531 314.871 455.531 313.509C455.531 312.146 456.638 311.037 457.997 311.037C459.357 311.037 460.463 312.146 460.463 313.509Z" fill="#6558DE"/>
<path d="M422.605 263.399C430.691 263.399 437.247 256.829 437.247 248.724C437.247 240.619 430.691 234.049 422.605 234.049C414.518 234.049 407.963 240.619 407.963 248.724C407.963 256.829 414.518 263.399 422.605 263.399Z" fill="white"/>
<path d="M422.625 248.132C424.055 248.132 425.376 247.435 426.216 246.368C426.837 245.597 427.206 244.604 427.206 243.502C427.206 240.967 425.155 238.872 422.625 238.872C420.096 238.872 418.006 240.967 418.006 243.502C418.006 244.604 418.371 245.597 418.996 246.368C419.84 247.435 421.157 248.132 422.625 248.132Z" fill="#3E2F9E"/>
<path d="M430.74 256.382C430.74 259.304 414.465 259.304 414.465 256.382V252.977C415.115 248.322 429.416 248.129 430.744 252.977V256.382H430.74Z" fill="#3E2F9E"/>
<path d="M381.933 311.59V311.213C381.933 309.689 380.697 308.449 379.176 308.449C377.655 308.449 376.418 309.689 376.418 311.213V311.59H376V316.572C376 317.431 382.369 317.431 382.369 316.572V311.59H381.933ZM377.402 311.213C377.402 310.255 377.988 309.389 379.176 309.389C380.363 309.389 380.971 310.203 380.971 311.213V311.59H377.402V311.213ZM379.646 314.1V315.54C379.646 315.797 379.425 315.984 379.169 315.984C378.912 315.984 378.726 315.801 378.726 315.54V314.1C378.47 313.952 378.283 313.695 378.283 313.361C378.283 312.882 378.687 312.474 379.169 312.474C379.65 312.474 380.054 312.879 380.054 313.361C380.054 313.692 379.871 313.952 379.65 314.1H379.646Z" fill="#6B778C"/>
<path d="M379.222 285.93C379.781 285.93 380.294 285.659 380.624 285.243C380.866 284.944 381.01 284.557 381.01 284.124C381.01 283.134 380.209 282.317 379.222 282.317C378.235 282.317 377.42 283.134 377.42 284.124C377.42 284.553 377.564 284.94 377.806 285.243C378.137 285.659 378.649 285.93 379.222 285.93Z" fill="#6B778C"/>
<path d="M382.387 289.148C382.387 290.289 376 290.289 376 289.148L376.035 287.82C376.285 286.004 381.87 285.926 382.387 287.82V289.148Z" fill="#6B778C"/>
<path d="M415.715 288.5H389.898C388.767 288.5 387.84 287.574 387.84 286.437C387.84 285.303 388.764 284.377 389.898 284.377H415.715C416.846 284.377 417.77 285.303 417.77 286.437C417.77 287.57 416.846 288.5 415.715 288.5Z" fill="#B0A7E6"/>
<path d="M399.717 273.458H374.789C373.658 273.458 372.734 272.532 372.734 271.399C372.734 270.265 373.658 269.339 374.789 269.339H399.717C400.849 269.339 401.776 270.265 401.776 271.399C401.776 272.532 400.852 273.458 399.717 273.458Z" fill="#B0A7E6"/>
<path d="M449.766 288.5H423.95C422.818 288.5 421.895 287.574 421.895 286.437C421.895 285.303 422.818 284.377 423.95 284.377H449.766C450.897 284.377 451.821 285.303 451.821 286.437C451.821 287.57 450.897 288.5 449.766 288.5Z" fill="#B0A7E6"/>
<path d="M291.133 285.518V321.959C291.133 326.008 340.571 326.008 340.571 321.959V285.518H291.133Z" fill="white"/>
<path d="M315.85 305.397C319.22 305.397 321.952 302.659 321.952 299.281C321.952 295.903 319.22 293.165 315.85 293.165C312.48 293.165 309.748 295.903 309.748 299.281C309.748 302.659 312.48 305.397 315.85 305.397Z" fill="#6558DE"/>
<path d="M315.85 317.706C314.469 317.706 313.349 316.583 313.349 315.199V301.168H318.351V315.199C318.351 316.583 317.231 317.706 315.85 317.706Z" fill="#6558DE"/>
<path d="M336.236 282.923H331.234V280.469C331.234 271.966 324.334 265.051 315.85 265.051C307.367 265.051 300.467 271.966 300.467 280.469V282.923H295.465V280.469C295.465 269.202 304.609 260.037 315.85 260.037C327.092 260.037 336.236 269.202 336.236 280.469V282.923Z" fill="white"/>
<path d="M676.763 190.079C659.378 208.743 631.636 224.042 601.952 230.559C601.941 232.545 601.892 243.555 601.667 294.298C601.365 361.987 665.641 395.066 675.618 400.143C685.286 395.682 750.374 362.656 750.676 294.963C750.901 244.22 750.95 233.21 750.96 231.224C721.336 224.443 693.98 208.898 676.76 190.079H676.763Z" fill="white"/>
<path d="M676.606 197.42C658.683 213.898 633.853 226.848 606.551 233.907L606.28 294.284C606.157 321.909 617.107 346.903 638.828 368.568C653.101 382.803 668.105 391.633 675.721 395.605C676.048 395.439 676.406 395.249 676.761 395.066V197.561C676.708 197.515 676.655 197.469 676.606 197.42Z" fill="#6558DE"/>
<path d="M676.764 197.561V395.066C684.682 390.936 699.071 382.405 712.856 368.902C734.77 347.431 745.941 322.539 746.064 294.91L746.334 234.534C719.172 227.252 694.529 214.13 676.767 197.561H676.764Z" fill="#4F3CC8"/>
<path d="M731.468 258.078C710.682 261.289 682.378 280.292 664.522 303.139C662.017 292.365 650.772 282.531 644.892 280.383L627.07 298.336C638.199 303.364 650.358 317.603 651.97 332.183L669.774 334.947C677.281 320.085 696.665 284.538 735.234 265.426C734.493 262.518 731.767 258.494 731.472 258.078H731.468Z" fill="white"/>
</g>
<defs>
<linearGradient id="paint0_linear_1705_7253" x1="176.682" y1="348.49" x2="67.6947" y2="348.49" gradientUnits="userSpaceOnUse">
<stop stop-color="#AA80F9"/>
<stop offset="1" stop-color="#6165D7"/>
</linearGradient>
<linearGradient id="paint1_linear_1705_7253" x1="28.569" y1="305.504" x2="76.1014" y2="433.222" gradientUnits="userSpaceOnUse">
<stop stop-color="#E38DDD"/>
<stop offset="1" stop-color="#9571F6"/>
</linearGradient>
<linearGradient id="paint2_linear_1705_7253" x1="115.047" y1="438.449" x2="49.8906" y2="438.449" gradientUnits="userSpaceOnUse">
<stop stop-color="#FF9085"/>
<stop offset="1" stop-color="#FB6FBB"/>
</linearGradient>
<clipPath id="clip0_1705_7253">
<rect width="755" height="502" fill="white"/>
</clipPath>
</defs>
</svg>
